<svg width="50" height="50" viewBox="0 0 50 50" fill="none" xmlns="http://www.w3.org/2000/svg">
<path d="M8.79573 45.8228V38.4269C8.79573 35.779 8.10198 34.4019 6.73948 32.0998C5.07851 29.2876 4.19092 26.0861 4.16677 22.8201C4.14262 19.5541 4.98276 16.3398 6.60197 13.5033C8.22118 10.6668 10.5618 8.30911 13.3865 6.66933C16.2111 5.02956 19.4192 4.16608 22.6853 4.1665C27.5959 4.16706 32.3053 6.11774 35.778 9.58966C39.2507 13.0616 41.2024 17.7705 41.2041 22.6811C41.2041 23.8894 41.2041 24.4936 41.2541 24.8311C41.3749 25.6394 41.7541 26.3353 42.1228 27.0561L45.8332 34.2519L42.9166 35.7103C42.0728 36.1311 41.6499 36.3415 41.3562 36.7311C41.0624 37.1207 40.9791 37.5623 40.8145 38.4394L40.7978 38.5269C40.4166 40.5436 39.9978 42.7686 38.8187 44.1728C38.402 44.6665 37.8853 45.0686 37.3041 45.354C36.3437 45.8228 35.1624 45.8228 32.7999 45.8228C31.7062 45.8228 30.6103 45.8478 29.5166 45.8228C26.927 45.7582 24.9999 43.579 24.9999 41.0519" stroke="#2BB6A8" stroke-width="3.125" stroke-linecap="round" stroke-linejoin="round"/>
<path d="M29.9749 21.9415C29.0874 21.9415 28.277 21.604 27.6624 21.0519M29.9749 21.9415C29.9749 24.329 28.5916 26.5957 25.9291 26.5957C23.2666 26.5957 21.8832 28.8623 21.8832 31.2498M29.9749 21.9415C34.4541 21.9415 34.4541 14.9602 29.9749 14.9602C29.5666 14.9616 29.1797 15.0276 28.8145 15.1582C29.0332 9.95399 21.5311 8.54149 19.8311 13.4165M19.8311 13.4165C21.0707 14.2519 21.8832 15.6727 21.8832 17.2852M19.8311 13.4165C15.9728 10.8123 10.8311 15.4852 13.277 19.6519C9.1728 20.2665 9.6103 26.5957 13.7916 26.5957C14.3491 26.5954 14.8982 26.4604 15.3923 26.2021C15.8864 25.9439 16.3107 25.57 16.6291 25.1123" stroke="#2BB6A8" stroke-width="3.125" stroke-linecap="round" stroke-linejoin="round"/>
</svg>
