<svg width="50" height="50" viewBox="0 0 50 50" fill="none" xmlns="http://www.w3.org/2000/svg">
<path d="M24.3194 2.03564C22.8237 2.03984 21.3158 2.37549 20.0225 2.93281C19.2667 2.875 18.5333 2.84395 17.8252 2.84443C8.97564 2.85156 3.85239 7.39258 1.81274 15.1797V48.4041H20.3003C19.7945 43.0789 20.8121 37.2648 22.9644 33.304C20.1439 32.8184 17.3089 32.5035 14.5813 32.4039L13.8336 32.3764L13.7145 31.635C12.7887 25.8762 12.7254 20.01 15.8692 14.4016L17.4623 15.2928C14.7106 20.2016 14.6302 25.3079 15.4144 30.6309C23.3988 31.0293 32.0365 33.0983 38.791 35.9867C41.0102 35.4272 42.0933 33.0877 42.8771 29.5902L39.7552 31.7021L38.7757 27.3624L34.3138 30.3807L33.2611 25.7205L29.0375 28.574L27.9937 23.9536L23.7152 26.8468L22.2503 20.3618L29.1687 15.6835L30.2124 20.3069L34.491 17.4139L35.5437 22.0738L39.7673 19.2174L40.747 23.554L45.2056 20.5389L45.9564 23.8653C47.9923 21.2306 49.3962 17.3678 47.3632 15.5372C44.8783 13.2995 42.2597 11.3048 39.6087 9.62275C38.9675 7.18799 33.6491 2.09219 30.4535 4.94756C29.0433 2.85635 26.6964 2.02959 24.3194 2.03623V2.03564ZM24.5333 4.14746C26.301 4.14746 27.7162 5.56836 27.7162 7.34863C27.7162 7.66016 27.6719 7.95898 27.591 8.24277C27.2898 7.6334 26.6629 7.21133 25.9371 7.21133C24.9179 7.21133 24.0908 8.03848 24.0908 9.05762C24.0908 9.66504 24.3855 10.2015 24.8384 10.5377C24.7378 10.5472 24.6363 10.5499 24.5333 10.5499C22.7653 10.5499 21.3471 9.129 21.3471 7.34873C21.3471 5.56846 22.7653 4.14756 24.5332 4.14756L24.5333 4.14746Z" fill="#F5585D"/>
</svg>
