<svg width="22" height="22" viewBox="0 0 22 22" fill="none" xmlns="http://www.w3.org/2000/svg">
<g clip-path="url(#clip0_35_153)">
<path d="M19.5154 3.62159C19.4331 3.61311 19.3502 3.61311 19.2679 3.62159H2.36631C2.25798 3.62326 2.15038 3.6395 2.04639 3.66988L10.7688 12.3561L19.5154 3.62159Z" fill="#E6E6E6"/>
<path d="M20.4087 4.46094L11.6199 13.2135C11.3937 13.4384 11.0877 13.5646 10.7688 13.5646C10.4498 13.5646 10.1438 13.4384 9.91764 13.2135L1.20729 4.52734C1.18052 4.62575 1.16632 4.72716 1.16504 4.82915V16.9017C1.16504 17.2219 1.29223 17.529 1.51864 17.7554C1.74504 17.9818 2.05211 18.109 2.37229 18.109H19.2739C19.5941 18.109 19.9011 17.9818 20.1275 17.7554C20.3539 17.529 20.4811 17.2219 20.4811 16.9017V4.82915C20.4763 4.70339 20.4519 4.57915 20.4087 4.46094ZM3.19926 16.9017H2.36022V16.0385L6.74859 11.6864L7.59971 12.5375L3.19926 16.9017ZM19.2618 16.9017H18.4167L14.0163 12.5375L14.8674 11.6864L19.2558 16.0385L19.2618 16.9017Z" fill="#E6E6E6"/>
</g>
<defs>
<clipPath id="clip0_35_153">
<rect width="21.7306" height="21.7306" fill="white"/>
</clipPath>
</defs>
</svg>
