<svg width="33" height="33" viewBox="0 0 33 33" fill="none" xmlns="http://www.w3.org/2000/svg">
<path d="M8.56108 30.5167C6.90584 30.3257 5.36416 29.5795 4.18744 28.3998C3.01072 27.2201 2.26838 25.6766 2.08149 24.0209C1.81606 21.518 1.58789 18.9475 1.58789 16.3282C1.58789 13.7089 1.81373 11.1362 2.08149 8.63559C2.26838 6.97988 3.01072 5.43633 4.18744 4.25664C5.36416 3.07696 6.90584 2.33075 8.56108 2.1397C11.078 1.86031 13.6623 1.61816 16.2979 1.61816C18.9336 1.61816 21.5179 1.85798 24.0348 2.1397C25.6901 2.33075 27.2317 3.07696 28.4085 4.25664C29.5852 5.43633 30.3275 6.97988 30.5144 8.63559C30.7822 11.1385 31.008 13.7089 31.008 16.3282C31.008 18.9475 30.7822 21.518 30.5144 24.0209C30.3275 25.6766 29.5852 27.2201 28.4085 28.3998C27.2317 29.5795 25.6901 30.3257 24.0348 30.5167C23.0569 30.627 22.069 30.7255 21.0709 30.8124C20.9122 30.8257 20.7524 30.8058 20.6017 30.7539C20.4511 30.702 20.3129 30.6194 20.196 30.5112C20.079 30.403 19.9859 30.2716 19.9225 30.1255C19.859 29.9793 19.8267 29.8216 19.8276 29.6623V23.3876H23.3713C23.68 23.3876 23.9761 23.2649 24.1944 23.0466C24.4127 22.8283 24.5354 22.5322 24.5354 22.2234V18.6681C24.5354 18.3594 24.4127 18.0633 24.1944 17.845C23.9761 17.6267 23.68 17.504 23.3713 17.504H19.8276V15.1524C19.8273 14.8432 19.888 14.537 20.0062 14.2513C20.1244 13.9656 20.2977 13.7059 20.5164 13.4873C20.735 13.2687 20.9946 13.0953 21.2804 12.9771C21.5661 12.8589 21.8723 12.7982 22.1815 12.7986H23.3713C23.68 12.7986 23.9761 12.6759 24.1944 12.4576C24.4127 12.2393 24.5354 11.9432 24.5354 11.6344V9.26656C24.5354 8.64288 24.2876 8.04476 23.8466 7.60375C23.4056 7.16275 22.8075 6.915 22.1838 6.915H21.0057C19.1333 6.915 17.3374 7.65867 16.0132 8.98249C14.6889 10.3063 13.9447 12.1019 13.9441 13.9743V17.504H10.4004C10.0917 17.504 9.79557 17.6267 9.57725 17.845C9.35893 18.0633 9.23628 18.3594 9.23628 18.6681V22.2234C9.23628 22.5322 9.35893 22.8283 9.57725 23.0466C9.79557 23.2649 10.0917 23.3876 10.4004 23.3876H13.9464V29.7554C13.9481 29.9129 13.9171 30.069 13.8554 30.214C13.7938 30.3589 13.7028 30.4895 13.5882 30.5976C13.4736 30.7056 13.3378 30.7888 13.1895 30.8418C13.0412 30.8948 12.8835 30.9165 12.7264 30.9056C11.3361 30.8056 9.94581 30.676 8.56108 30.5167Z" fill="#E6E6E6"/>
</svg>
