<svg width="33" height="33" viewBox="0 0 33 33" fill="none" xmlns="http://www.w3.org/2000/svg">
<g clip-path="url(#clip0_35_137)">
<path d="M16.298 10.8652C14.8572 10.8652 13.4754 11.4376 12.4565 12.4564C11.4377 13.4752 10.8654 14.8571 10.8654 16.2979C10.8654 17.7387 11.4377 19.1205 12.4565 20.1393C13.4754 21.1582 14.8572 21.7305 16.298 21.7305C17.7388 21.7305 19.1206 21.1582 20.1395 20.1393C21.1583 19.1205 21.7307 17.7387 21.7307 16.2979C21.7307 14.8571 21.1583 13.4752 20.1395 12.4564C19.1206 11.4376 17.7388 10.8652 16.298 10.8652Z" fill="#E6E6E6"/>
<path fill-rule="evenodd" clip-rule="evenodd" d="M9.77877 0C7.18528 0 4.69801 1.03026 2.86413 2.86413C1.03026 4.69801 0 7.18528 0 9.77877L0 22.8171C0 25.4106 1.03026 27.8979 2.86413 29.7318C4.69801 31.5656 7.18528 32.5959 9.77877 32.5959H22.8171C25.4106 32.5959 27.8979 31.5656 29.7318 29.7318C31.5656 27.8979 32.5959 25.4106 32.5959 22.8171V9.77877C32.5959 7.18528 31.5656 4.69801 29.7318 2.86413C27.8979 1.03026 25.4106 0 22.8171 0L9.77877 0ZM8.69224 16.2979C8.69224 14.2808 9.49355 12.3462 10.9199 10.9199C12.3462 9.49355 14.2808 8.69224 16.2979 8.69224C18.3151 8.69224 20.2496 9.49355 21.676 10.9199C23.1023 12.3462 23.9037 14.2808 23.9037 16.2979C23.9037 18.3151 23.1023 20.2496 21.676 21.676C20.2496 23.1023 18.3151 23.9037 16.2979 23.9037C14.2808 23.9037 12.3462 23.1023 10.9199 21.676C9.49355 20.2496 8.69224 18.3151 8.69224 16.2979ZM23.9037 8.69224H26.0767V6.51918H23.9037V8.69224Z" fill="#E6E6E6"/>
</g>
<defs>
<clipPath id="clip0_35_137">
<rect width="32.5959" height="32.5959" fill="white"/>
</clipPath>
</defs>
</svg>
