<svg width="50" height="50" viewBox="0 0 50 50" fill="none" xmlns="http://www.w3.org/2000/svg">
<path d="M45.2148 1.98242L30.8203 7.3877L35.9863 10.6445C26.7578 22.2656 13.4082 29.4238 2.12891 32.1484L5.32422 37.9688C17.998 33.8379 31.416 26.3867 40.0586 13.2227L43.9941 15.7031L45.2148 1.98242ZM45.9668 13.3789L45.498 18.7305L40.4883 15.5664C40.3125 15.8301 40.127 16.084 39.9414 16.3477V47.5586H47.5586V13.3789H45.9668ZM31.2598 25.8789C30.0195 26.9531 28.7402 27.9688 27.4414 28.9258V47.5586H35.0586V25.8789H31.2598ZM19.1797 34.082C17.7734 34.8242 16.3672 35.5078 14.9414 36.1523V47.5586H22.5586V34.082H19.1797ZM2.44141 38.3789V47.5586H10.0586V38.3789H9.50391C8.05664 38.916 6.61035 39.4141 5.17285 39.873L4.4834 40.0879L3.5459 38.3789H2.44141Z" fill="#F5585D"/>
</svg>
