<svg width="50" height="50" viewBox="0 0 50 50" fill="none" xmlns="http://www.w3.org/2000/svg">
<path opacity="0.5" d="M5.13325 44.8667C8.18742 47.9167 13.0958 47.9167 22.9166 47.9167C32.7374 47.9167 37.6478 47.9167 40.6978 44.8646C43.7499 41.8167 43.7499 36.9042 43.7499 27.0833C43.7499 17.2625 43.7499 12.3521 40.6978 9.3C37.6499 6.25 32.7395 6.25 22.9166 6.25C13.0937 6.25 8.18534 6.25 5.13325 9.3C2.08325 12.3542 2.08325 17.2625 2.08325 27.0833C2.08325 36.9042 2.08325 41.8167 5.13325 44.8667Z" fill="#2BB6A8"/>
<path fill-rule="evenodd" clip-rule="evenodd" d="M34.1146 9.68756C33.7555 9.89476 33.3287 9.95081 32.9283 9.84336C32.5278 9.73592 32.1864 9.47379 31.9792 9.11465C31.772 8.7555 31.716 8.32875 31.8234 7.92828C31.9308 7.52782 32.193 7.18643 32.5521 6.97923L39.7688 2.81256C40.0365 2.65757 40.3442 2.58554 40.6529 2.60558C40.9616 2.62562 41.2574 2.73684 41.5028 2.92515C41.7482 3.11346 41.9322 3.37037 42.0315 3.66335C42.1308 3.95633 42.1409 4.27219 42.0605 4.5709L39.9855 12.3105L43.9355 10.0313C44.1132 9.9271 44.3099 9.85908 44.514 9.83116C44.7182 9.80325 44.9258 9.81599 45.1251 9.86866C45.3243 9.92133 45.5111 10.0129 45.6748 10.1381C45.8385 10.2632 45.9758 10.4195 46.0788 10.598C46.1819 10.7764 46.2486 10.9735 46.2751 11.1779C46.3017 11.3822 46.2876 11.5898 46.2336 11.7886C46.1796 11.9875 46.0868 12.1737 45.9606 12.3366C45.8343 12.4994 45.6771 12.6357 45.498 12.7376L38.2813 16.9042C38.0136 17.0592 37.7059 17.1313 37.3972 17.1112C37.0885 17.0912 36.7927 16.98 36.5473 16.7916C36.3019 16.6033 36.1179 16.3464 36.0186 16.0534C35.9193 15.7605 35.9092 15.4446 35.9896 15.1459L38.0646 7.40631L34.1146 9.68756ZM26.4021 12.8126C26.2243 12.71 26.0684 12.5734 25.9434 12.4105C25.8183 12.2477 25.7266 12.0618 25.6734 11.8635C25.6202 11.6652 25.6066 11.4584 25.6333 11.2548C25.6601 11.0513 25.7266 10.855 25.8292 10.6771C25.9318 10.4993 26.0684 10.3434 26.2313 10.2184C26.3941 10.0934 26.58 10.0016 26.7783 9.94843C26.9766 9.89523 27.1834 9.88161 27.3869 9.90834C27.5905 9.93507 27.7868 10.0016 27.9646 10.1042L31.573 12.1876C31.8406 12.3421 32.0564 12.5725 32.1931 12.8497C32.3298 13.1269 32.3812 13.4384 32.3408 13.7448C32.3005 14.0512 32.1702 14.3388 31.9663 14.5711C31.7625 14.8034 31.4944 14.9701 31.1959 15.0501L29.148 15.6001L29.4896 15.798C29.6688 15.8998 29.826 16.0361 29.9522 16.199C30.0785 16.3618 30.1713 16.548 30.2253 16.7469C30.2793 16.9458 30.2934 17.1533 30.2668 17.3577C30.2403 17.562 30.1735 17.7591 30.0705 17.9376C29.9675 18.116 29.8302 18.2723 29.6665 18.3975C29.5028 18.5227 29.3159 18.6142 29.1167 18.6669C28.9175 18.7196 28.7098 18.7323 28.5057 18.7044C28.3015 18.6765 28.1049 18.6084 27.9271 18.5042L24.3188 16.4209C24.0511 16.2665 23.8352 16.0363 23.6984 15.7592C23.5616 15.4822 23.51 15.1708 23.5501 14.8644C23.5902 14.558 23.7203 14.2704 23.9239 14.0379C24.1275 13.8055 24.3954 13.6386 24.6938 13.5584L26.7438 13.0084L26.4021 12.8126Z" fill="#2BB6A8"/>
<path d="M22.9167 37.5001C23.4693 37.5001 23.9992 37.2806 24.3899 36.8899C24.7806 36.4992 25.0001 35.9693 25.0001 35.4168C25.0001 34.8642 24.7806 34.3343 24.3899 33.9436C23.9992 33.5529 23.4693 33.3334 22.9167 33.3334C22.3642 33.3334 21.8343 33.5529 21.4436 33.9436C21.0529 34.3343 20.8334 34.8642 20.8334 35.4168C20.8334 35.9693 21.0529 36.4992 21.4436 36.8899C21.8343 37.2806 22.3642 37.5001 22.9167 37.5001ZM24.998 23.8376C25.3061 23.5606 25.7115 23.4172 26.1253 23.4391C26.539 23.461 26.9271 23.6463 27.2042 23.9543C28.173 25.0314 29.2147 25.5209 30.2084 25.5209C31.2022 25.5209 32.2438 25.0314 33.2126 23.9564C33.3486 23.8 33.5144 23.6723 33.7003 23.5807C33.8861 23.489 34.0884 23.4353 34.2952 23.4226C34.502 23.4098 34.7093 23.4383 34.905 23.5065C35.1007 23.5746 35.2809 23.681 35.4351 23.8195C35.5893 23.9579 35.7144 24.1256 35.8032 24.3129C35.8919 24.5002 35.9426 24.7032 35.9521 24.9102C35.9616 25.1172 35.9299 25.324 35.8587 25.5187C35.7876 25.7133 35.6784 25.8918 35.5376 26.0439C34.1417 27.5939 32.3126 28.6459 30.2084 28.6459C28.1042 28.6459 26.273 27.5939 24.8792 26.0459C24.7418 25.8934 24.6357 25.7152 24.5671 25.5215C24.4986 25.3279 24.4689 25.1227 24.4797 24.9176C24.4906 24.7125 24.5417 24.5115 24.6303 24.3262C24.7189 24.1409 24.8452 23.9749 24.998 23.8376ZM12.6209 23.9564C12.4863 23.7957 12.3207 23.6638 12.134 23.5684C11.9473 23.4731 11.7434 23.4163 11.5343 23.4014C11.3252 23.3865 11.1153 23.4139 10.917 23.4818C10.7187 23.5497 10.5361 23.6568 10.38 23.7968C10.224 23.9368 10.0977 24.1067 10.0087 24.2965C9.9197 24.4862 9.86979 24.692 9.86194 24.9014C9.85409 25.1109 9.88846 25.3198 9.96302 25.5157C10.0376 25.7116 10.1508 25.8905 10.2959 26.0418C11.6917 27.5918 13.5209 28.6439 15.6251 28.6439C17.7292 28.6439 19.5605 27.5918 20.9542 26.0439C21.2316 25.7355 21.3752 25.3297 21.3533 24.9155C21.3314 24.5014 21.1459 24.1129 20.8376 23.8355C20.5293 23.5582 20.1234 23.4146 19.7093 23.4365C19.2951 23.4584 18.9066 23.6439 18.6292 23.9522C17.6626 25.0293 16.6188 25.5189 15.6251 25.5189C14.6313 25.5189 13.5897 25.0314 12.6209 23.9564Z" fill="#2BB6A8"/>
</svg>
