<svg width="22" height="22" viewBox="0 0 22 22" fill="none" xmlns="http://www.w3.org/2000/svg">
<g clip-path="url(#clip0_35_157)">
<path d="M21.7306 6.94176C21.7306 5.10794 19.9197 2.41455 10.8653 2.41455C1.81088 2.41455 0 5.10794 0 6.94176C0 6.96892 0.0114689 6.98763 0.0132798 7.01359C0.00603628 7.1319 0 7.25625 0 7.39448C0 8.97779 1.35152 9.65808 3.01814 9.65808C4.68475 9.65808 6.03628 8.97779 6.03628 7.39448C6.03504 7.27376 6.02475 7.1533 6.00549 7.03411C7.46929 6.82224 9.11598 6.63994 10.8653 6.63994C12.6146 6.63994 14.2613 6.82224 15.7251 7.03411C15.7058 7.1533 15.6956 7.27376 15.6943 7.39448C15.6943 8.97779 17.0452 9.65808 18.7125 9.65808C20.3797 9.65808 21.7306 8.97779 21.7306 7.39448C21.7306 7.25866 21.7252 7.13552 21.7161 7.01963C21.7185 6.99186 21.7306 6.97134 21.7306 6.94176Z" fill="#D9D9D9"/>
<path d="M21.0871 13.8836C20.7962 13.2613 19.6927 11.3544 18.6919 9.65401C17.7515 8.05621 16.2979 6.6401 15.0907 6.6401V5.43284C15.0907 5.11266 14.9635 4.80559 14.7371 4.57918C14.5107 4.35278 14.2036 4.22559 13.8834 4.22559C13.5633 4.22559 13.2562 4.35278 13.0298 4.57918C12.8034 4.80559 12.6762 5.11266 12.6762 5.43284V6.6401H9.05441V5.43284C9.05441 5.11266 8.92722 4.80559 8.70082 4.57918C8.47441 4.35278 8.16734 4.22559 7.84716 4.22559C7.52698 4.22559 7.21991 4.35278 6.9935 4.57918C6.7671 4.80559 6.6399 5.11266 6.6399 5.43284V6.6401C5.43265 6.6401 3.97791 8.05923 3.03625 9.65823C2.03604 11.3574 0.933812 13.2619 0.643467 13.8836C0.29457 14.6315 0 15.0909 0 16.2981C0 17.5054 1.0811 19.3163 2.41451 19.3163H19.3161C20.6495 19.3163 21.7306 17.5054 21.7306 16.2981C21.7306 15.0909 21.4602 14.6828 21.0871 13.8836Z" fill="white"/>
<path d="M12.1003 8.94445C12.1003 9.21729 11.5474 9.43822 10.8653 9.43822C10.1832 9.43822 9.63083 9.21729 9.63083 8.94445C9.63083 8.67161 10.1832 8.45068 10.8653 8.45068C11.5474 8.45068 12.1003 8.67161 12.1003 8.94445ZM9.13646 8.94445C9.13646 9.21729 8.58414 9.43822 7.90204 9.43822C7.21994 9.43822 6.66763 9.21729 6.66763 8.94445C6.66763 8.67161 7.22055 8.45068 7.90204 8.45068C8.58354 8.45068 9.13646 8.67161 9.13646 8.94445ZM15.0629 8.94445C15.0629 9.21729 14.5106 9.43822 13.8285 9.43822C13.1464 9.43822 12.5934 9.21729 12.5934 8.94445C12.5934 8.67161 13.1464 8.45068 13.8285 8.45068C14.5106 8.45068 15.0629 8.67161 15.0629 8.94445ZM12.3466 10.6732C12.3466 11.0831 11.6832 11.4145 10.8653 11.4145C10.0473 11.4145 9.38335 11.0831 9.38335 10.6732C9.38335 10.2646 10.0467 9.93259 10.8653 9.93259C11.6838 9.93259 12.3466 10.264 12.3466 10.6732ZM15.8041 10.6732C15.8041 11.0831 15.1401 11.4145 14.3228 11.4145C13.5055 11.4145 12.8409 11.0831 12.8409 10.6732C12.8409 10.2646 13.5049 9.93259 14.3228 9.93259C15.1407 9.93259 15.8041 10.264 15.8041 10.6732ZM8.88958 10.6732C8.88958 11.0831 8.22619 11.4145 7.40828 11.4145C6.59036 11.4145 5.92637 11.0831 5.92637 10.6732C5.92637 10.2646 6.58976 9.93259 7.40828 9.93259C8.22619 9.93259 8.88958 10.264 8.88958 10.6732ZM12.8403 12.8952C12.8403 13.4421 11.956 13.8833 10.8653 13.8833C9.7745 13.8833 8.88958 13.4421 8.88958 12.8952C8.88958 12.3501 9.7745 11.9077 10.8653 11.9077C11.956 11.9083 12.8403 12.3501 12.8403 12.8952ZM17.286 12.8952C17.286 13.4415 16.4005 13.8833 15.3104 13.8833C14.2202 13.8833 13.3347 13.4421 13.3347 12.8952C13.3347 12.3501 14.2196 11.9077 15.3104 11.9077C16.4005 11.9083 17.286 12.3501 17.286 12.8952ZM8.39581 12.8952C8.39581 13.4415 7.51089 13.8833 6.42014 13.8833C5.32938 13.8833 4.44507 13.4421 4.44507 12.8952C4.44507 12.3501 5.32938 11.9077 6.42014 11.9077C7.51089 11.9083 8.39581 12.3501 8.39581 12.8952Z" fill="#2BB6A8"/>
</g>
<defs>
<clipPath id="clip0_35_157">
<rect width="21.7306" height="21.7306" fill="white"/>
</clipPath>
</defs>
</svg>
