<svg width="87" height="87" viewBox="0 0 87 87" fill="none" xmlns="http://www.w3.org/2000/svg">
<path d="M39.5567 26.6111C41.5584 24.1091 45.3638 24.1091 47.3654 26.6111L71.7313 57.0684C74.3503 60.3422 72.0194 65.1919 67.8269 65.1919H19.0953C14.9027 65.1919 12.5719 60.3422 15.1909 57.0684L39.5567 26.6111Z" fill="#2BB6A8"/>
<path d="M34.8178 54.5417C35.0725 54.7964 35.4179 54.9394 35.778 54.9394C36.1382 54.9394 36.4836 54.7964 36.7383 54.5417L43.4612 47.8188L50.1841 54.5417C50.4402 54.7891 50.7833 54.926 51.1394 54.9229C51.4955 54.9198 51.8361 54.777 52.088 54.5252C52.3398 54.2734 52.4826 53.9327 52.4857 53.5766C52.4888 53.2205 52.3519 52.8775 52.1045 52.6213L44.4214 44.9382C44.1667 44.6836 43.8213 44.5405 43.4612 44.5405C43.101 44.5405 42.7556 44.6836 42.5009 44.9382L34.8178 52.6213C34.5632 52.876 34.4202 53.2214 34.4202 53.5815C34.4202 53.9417 34.5632 54.2871 34.8178 54.5417Z" fill="#E6E6E6"/>
</svg>
