<svg width="22" height="22" viewBox="0 0 22 22" fill="none" xmlns="http://www.w3.org/2000/svg">
<g clip-path="url(#clip0_35_150)">
<path fill-rule="evenodd" clip-rule="evenodd" d="M11.9519 0.589847C17.5615 0.585191 22.2382 5.27124 22.2382 10.87C22.2382 16.4734 17.5615 21.1454 11.9519 21.1423C10.4775 21.1451 9.01992 20.8295 7.67869 20.2172L2.58752 21.1377C2.45238 21.1624 2.31309 21.1509 2.18388 21.1041C2.05467 21.0574 1.94018 20.9773 1.8521 20.8718C1.76402 20.7664 1.70551 20.6394 1.68255 20.504C1.65958 20.3685 1.67299 20.2294 1.72141 20.1008L3.18046 16.2235C2.19726 14.6102 1.67642 12.7577 1.67484 10.8684C1.67639 5.26969 6.34847 0.592952 11.9519 0.589847ZM17.1129 15.2363C15.9689 16.1614 14.1979 17.0958 12.5044 16.0093C10.2848 14.5828 8.31974 12.7093 6.89484 10.4881C6.05821 9.1874 6.84517 7.10437 8.02172 5.83468C8.49048 5.32712 9.26347 5.40783 9.77414 5.87349L10.8483 6.85447C11.1742 7.15249 11.1866 7.67092 10.9833 8.06517C10.662 8.68294 10.4726 9.51336 10.87 10.1327C11.3698 10.9088 11.9845 11.674 13.4528 12.1195C13.8967 12.2561 14.4664 12.1971 14.9507 12.0015C15.3558 11.837 15.8696 11.8385 16.1691 12.1583L17.1688 13.2215C17.7198 13.8083 17.7384 14.7303 17.1129 15.2363Z" fill="#E6E6E6"/>
</g>
<defs>
<clipPath id="clip0_35_150">
<rect width="21.7306" height="21.7306" fill="white"/>
</clipPath>
</defs>
</svg>
