<svg width="33" height="33" viewBox="0 0 33 33" fill="none" xmlns="http://www.w3.org/2000/svg">
<path d="M3.39539 16.298C3.39539 10.2162 3.39539 7.17391 5.28459 5.28471C7.17379 3.39551 10.2147 3.39551 16.2993 3.39551C22.3811 3.39551 25.4221 3.39551 27.3113 5.28471C29.2005 7.17391 29.2005 10.2148 29.2005 16.298C29.2005 22.3799 29.2005 25.4222 27.3113 27.3114C25.4221 29.2006 22.3811 29.2006 16.2979 29.2006C10.2161 29.2006 7.17515 29.2006 5.28459 27.3114C3.39674 25.4208 3.39539 22.3813 3.39539 16.298Z" stroke="#E6E6E6" stroke-width="1.875" stroke-linecap="round" stroke-linejoin="round"/>
<path d="M9.50708 23.0889L15.2032 17.3942M15.2032 17.3942L9.50708 9.50732H13.2787L17.3939 15.2035L23.0887 9.50732M15.2032 17.3942L19.3157 23.0889H23.0887L17.3939 15.2021" stroke="#E6E6E6" stroke-width="1.875" stroke-linecap="round" stroke-linejoin="round"/>
</svg>
